<?xml version="1.0" encoding="utf-8"?>
<svg viewBox="0 0 931.19 979.26" xmlns="http://www.w3.org/2000/svg">
  <defs>
    <style>.cls-1{fill:#f57e20;}.cls-2{font-size:100px;}.cls-2,.cls-3{fill:#231f20;font-family:29LTBukra-Regular, "29LT Bukra";}.cls-3{font-size:57px;}</style>
  </defs>
  <path class="cls-1" d="M692.22,195.78C743.53,96,820,35,925.07,11.07,931.68,9.56,946,17.48,948,23.8c32.45,101.71,20.21,198-38.38,287.83-.74,1.15-2.86,1.39-4.35,2.06C871.69,197.66,779.35,169.38,692.22,195.78Z" transform="matrix(1, 0, 0, 1, -34.40999984741211, -10.880000114440918)" style="fill: rgb(0, 117, 194);"/>
  <path d="M306.11,692.92l-161.24-254-1.5.24V446q0,141.64.14,283.28c0,6-1.5,7.76-7.61,7.7-31.62-.31-63.24-.26-94.87,0-5.15,0-6.6-1.31-6.6-6.57q.23-229.54,0-459.09c0-6,2.18-6.74,7.25-6.72,38.26.17,76.52.25,114.78,0,6,0,9,2.14,11.9,7Q235.58,383.83,303.2,495.91c.67,1.11,1.52,2.12,2.81,3.89,3.56-6.1,6.86-11.72,10.13-17.36Q377.61,376.38,439,270.26c2.23-3.86,4.52-5.76,9.22-5.74,44.89.17,89.78.11,134.67.13a25.11,25.11,0,0,1,3.18.62C492.69,407.89,399.65,550,306.11,692.92Z" transform="matrix(1, 0, 0, 1, -34.40999984741211, -10.880000114440918)" style="fill: rgb(255, 255, 255);"/>
  <path d="M580.42,358c19.7-30.56,39.22-60.81,58.67-91.1,1.46-2.27,3.08-3.39,5.88-3.34,65.41,1.14,126.14,16.56,176.89,60.16,42.57,36.58,66.59,83.78,73.67,139.13C903.71,526.74,890,586.06,852.79,639c-38.31,54.39-91.51,85.14-157,95-34.3,5.15-68.87,2.87-103.33,3-41.57.23-83.15-.25-124.73,0-6.25,0-7.5-1.86-7.48-7.74.21-61.49.14-123,.11-184.46,0-3.56.31-6.77,2.46-10q55.27-82.62,110.33-165.4c.58-.87,1.28-1.66,3.28-4.22v14.6q0,122.07,0,244.16c0,10.8-.19,8.88,8.83,8.92,18.57.08,37.16-.39,55.73.08,71.83,1.85,122.33-49.49,135.55-109,9.44-42.43,2-81.36-26.62-114.89-20.09-23.52-46.7-36.51-76.19-44.15-29-7.53-58.58-7.82-88.26-6.27C583.94,358.71,582.4,359.45,580.42,358Z" transform="matrix(1, 0, 0, 1, -34.40999984741211, -10.880000114440918)" style="fill: rgb(255, 255, 255);"/>
</svg>